<?xml version="1.0" encoding="utf-8"?>
<!-- Generator: Adobe Illustrator 18.0.0, SVG Export Plug-In . SVG Version: 6.00 Build 0)  -->
<!DOCTYPE svg PUBLIC "-//W3C//DTD SVG 1.1//EN" "http://www.w3.org/Graphics/SVG/1.1/DTD/svg11.dtd">
<svg version="1.1" id="Layer_1" xmlns="http://www.w3.org/2000/svg" xmlns:xlink="http://www.w3.org/1999/xlink" x="0px" y="0px"
	 viewBox="0 0 108.4 78.2" enable-background="new 0 0 108.4 78.2" xml:space="preserve">
<path fill="#FFFFFF" d="M25.7,35.3c0-0.2,0-0.5,0-0.9c0.5,0.2,0.8,0.3,0.8,0.4c0,0,0.1,0,0.2,0.1c0.3,0.1,0.8,0.1,0.8-0.7
	c0-0.1,0-0.5,0-1.1c0.5,0.2,0.8,0.3,0.8,0.4c0,0,0.1,0,0.2,0.1c0.3,0.1,0.8,0.1,0.8-0.6c0-0.1,0-0.5,0-1.1c0.5,0.2,0.8,0.3,0.8,0.4
	c0,0,0.1,0,0.2,0.1c0.3,0.1,0.8,0.1,0.8-0.6c0-0.4,0.2-7.5,0.2-8.3c0-0.8-0.6-1.1-0.6-1.1c-0.6-0.4-3.3-1.6-3.5-1.7
	c-2.2-1-4.3-1.6-5.9-2c-1.7-0.4-2.7-0.6-2.7-0.6c-5.2-1-8.1,0.8-8.3,0.8c-0.8,0.4-1.4,0.9-1.9,1.4c-0.7,0.4-1.3,0.9-1.8,1.4
	c-0.7,0.4-1.3,0.9-1.8,1.4C4.1,23,3.5,23.5,3,24c-0.7,0.4-1.3,0.8-1.8,1.4c0,0,0.1,0,0.1-0.1c0.2-0.1,3.1-1.9,8.3-0.8
	c0.1,0,1.1,0.2,2.7,0.6c1.6,0.4,3.6,1.1,5.9,2c0.1,0.1,2.9,1.3,3.5,1.7c0,0,0.6,0.4,0.6,1.1c0,0.8-0.2,8-0.2,8.3
	c0,0.8-0.5,0.7-0.8,0.6c-0.1,0-0.2,0-0.2,0c-0.1-0.1-2.2-0.9-3.5-1.6c-1.1-0.6-3.7-1.6-6-2.2c-0.4-0.1-0.7-0.2-1.1-0.2
	c-0.1,0-2.2-0.5-2.7,0.7c0,0.1-0.7,1.4,1.7,2.8c1,0.5,2.1,1.1,3.3,1.8c1.2,0.6,2.6,1.4,3.6,2.1c2.2,1.3,5.2,4,6.4,7.3
	c0.1,0.2,1.3,3.1,0.9,6.3c0,0.2-0.2,3.6-2.4,6c0.7-0.4,1.3-0.8,1.8-1.4c0.7-0.4,1.3-0.8,1.8-1.4c0.7-0.4,1.3-0.8,1.8-1.4
	c0.7-0.4,1.3-0.8,1.8-1.4c3.9-2,4.2-7.1,4.2-7.4c0.4-3.2-0.8-6.1-0.9-6.3C30.9,39.2,27.9,36.6,25.7,35.3 M11.2,50.2
	c-0.8-0.4-1.7-0.8-2.7-1.4c-0.7-0.3-1.3-0.6-1.7-0.8c-1.1-0.5-3.4-1.8-4-2.2c-0.1-0.1-0.2-0.1-0.2-0.1c-0.1,0-0.1,0-0.2-0.1
	c-0.4-0.1-0.5,0.3-0.5,0.6l0,0.1l0,0.2c0,0.1,0,0.5-0.1,1.2c-0.4-0.2-0.7-0.4-0.9-0.5c-0.1-0.1-0.2-0.1-0.2-0.1
	c-0.1,0-0.1-0.1-0.2-0.1c-0.4-0.1-0.5,0.3-0.5,0.5l0,0.1l0,0.2c0,0.1,0,0.5-0.1,1.2c1,0.5,2.4,1.3,3.2,1.7c1.2,0.6,4,1.9,6.4,2.5
	c0.2,0.1,0.5,0.1,0.7,0.2c0.1,0,2.3,0.5,2.8-0.6C13.1,52.8,13.7,51.4,11.2,50.2 M52.5,15.2v8.5l1.2,0.3c0.3,0.1,0.6-0.2,0.6-0.6
	v-1.1l1.2,0.3c0.3,0.1,0.6-0.2,0.6-0.6V21l1.2,0.3c0.3,0.1,0.6-0.2,0.6-0.6v-1.1l1.2,0.3c0.3,0.1,0.6-0.2,0.6-0.6v-1.1l1.2,0.3
	c0.3,0.1,0.6-0.2,0.6-0.5V8.4c0-0.4-0.3-0.8-0.6-0.9L32.1,0c-0.3-0.1-0.6,0.2-0.6,0.5v1.1l-1.2-0.3c-0.3-0.1-0.6,0.2-0.6,0.6v1.1
	l-1.2-0.3c-0.3-0.1-0.6,0.2-0.6,0.6l0,1.1l-1.2-0.3c-0.3-0.1-0.6,0.2-0.6,0.6l0,1.1l-1.2-0.3c-0.3-0.1-0.6,0.2-0.6,0.5l0,1.1
	l27.6,7.1C52.2,14.4,52.5,14.8,52.5,15.2 M55.3,47.1l-2.8-0.7c-0.3-0.1-0.6,0.2-0.6,0.6l0,6.1c0,0.4,0.3,0.8,0.6,0.9l2.8,0.7
	c2.2,0.6,3.3-0.3,3.3-2.7C58.5,49.4,57.4,47.6,55.3,47.1 M53.8,62.4l-1.9-0.5l0,11.1l1.2,0.3c0.3,0.1,0.6-0.2,0.6-0.6v-1.1l1.2,0.3
	c0.3,0.1,0.6-0.2,0.6-0.6v-1.1l1.2,0.3c0.3,0.1,0.6-0.2,0.6-0.6l0-2.6l-0.4-1.5C56.3,63.5,55.4,62.8,53.8,62.4 M79.5,71l-4.7-14.6
	c0,0-0.3-0.8-0.1-1.3c0,0,0-0.3,0.7-0.8c0.1-0.1,0.2-0.2,0.4-0.3c0.9-0.8,1.5-1.8,1.5-1.9c0.8-1.3,1.3-3.6,1.3-5.9
	c0-9.8-5.4-12.4-13.9-14.6l-12.9-3.3l0-2.9l-8.4-2.2c-0.3-0.1-0.6,0.2-0.6,0.6l0,11.3l12.9,3.3c8.5,2.2,13.9,4.8,13.9,14.6
	c0,2.3-0.5,4.7-1.3,5.9c0,0.1-0.5,1.1-1.5,1.9c-0.1,0.1-0.2,0.2-0.4,0.3c-0.6,0.5-0.7,0.8-0.7,0.8c-0.1,0.5,0.1,1.3,0.1,1.3
	l4.7,14.6l1.6,0.4c0.1,0,0.4,0,0.5-0.1c0,0,0.2-0.2,0.1-0.6l-0.3-1.1l0,0l1.6,0.4c0.1,0,0.4,0,0.5-0.1c0,0,0.2-0.2,0.1-0.6l-0.3-1.1
	v0l1.6,0.4c0.1,0,0.4,0,0.5-0.1c0,0,0.2-0.2,0.1-0.6l-0.4-1.1v0l1.6,0.4c0.1,0,0.4,0,0.5-0.1c0,0,0.2-0.2,0.1-0.6l-0.3-1v0l1.6,0.4
	c0.1,0,0.4,0,0.5-0.1c0,0,0.2-0.2,0.1-0.6L79.5,71z M85.3,40.2c2.2,0.6,3.4-0.5,3.4-3.1c0-2.8-1.1-4.3-3.6-5l-1.8-0.5
	c-0.3-0.1-0.6,0.2-0.6,0.6l0,6.5c0,0.4,0.3,0.8,0.6,0.9L85.3,40.2z M95.2,16.8l-14-3.6c-0.3-0.1-0.6,0.2-0.6,0.5l0,1.1l-1.2-0.3
	c-0.3-0.1-0.6,0.2-0.6,0.5v1.1l-1.2-0.3c-0.3-0.1-0.6,0.2-0.6,0.6l0,1.1l-1.2-0.3c-0.3-0.1-0.6,0.2-0.6,0.5l0,1.1l-1.2-0.3
	c-0.3-0.1-0.6,0.2-0.6,0.5v1.1l12.8,3.3c4.4,1.1,7.5,2.4,9.9,5.4c2,2.5,3.5,6.5,3.2,10.7c-0.2,3.8-1.3,6.2-2.7,7.7
	c0.6-0.3,1.2-0.8,1.8-1.4c0.6-0.3,1.2-0.8,1.8-1.4c0.6-0.3,1.2-0.8,1.8-1.4c0.6-0.3,1.2-0.8,1.8-1.4c2.2-1.2,4.2-3.7,4.5-9.1
	c0.2-4.2-1.2-8.2-3.2-10.7C102.8,19.2,99.6,17.9,95.2,16.8 M88.5,49.5L82.7,48l0,10.3l1.2,0.3c0.3,0.1,0.6-0.2,0.6-0.6v-1.1l1.2,0.3
	c0.3,0.1,0.6-0.2,0.6-0.6l0-1.1l1.2,0.3c0.3,0.1,0.6-0.2,0.6-0.6v-1.1l1.2,0.3c0.3,0.1,0.6-0.2,0.6-0.6v-1.1l1.2,0.3
	c0.3,0.1,0.6-0.2,0.6-0.6l0-2.9C90.1,49.8,88.7,49.5,88.5,49.5"/>
</svg>
